<?xml version="1.0" encoding="UTF-8"?>
<svg version="1.1" xmlns="http://www.w3.org/2000/svg" width="413" height="122">
<path d="M0 0 C136.29 0 272.58 0 413 0 C413 40.26 413 80.52 413 122 C276.71 122 140.42 122 0 122 C0 81.74 0 41.48 0 0 Z " fill="#3D5478" transform="translate(0,0)"/>
<path d="M0 0 C136.29 0 272.58 0 413 0 C413 8.58 413 17.16 413 26 C276.71 26 140.42 26 0 26 C0 17.42 0 8.84 0 0 Z " fill="#40506B" transform="translate(0,0)"/>
<path d="M0 0 C136.29 0 272.58 0 413 0 C413 2.97 413 5.94 413 9 C276.71 9 140.42 9 0 9 C0 6.03 0 3.06 0 0 Z " fill="#516587" transform="translate(0,17)"/>
<path d="M0 0 C136.29 0 272.58 0 413 0 C413 1.65 413 3.3 413 5 C276.71 5 140.42 5 0 5 C0 3.35 0 1.7 0 0 Z " fill="#3C4A61" transform="translate(0,12)"/>
<path d="M0 0 C136.29 0 272.58 0 413 0 C413 0.99 413 1.98 413 3 C276.71 3 140.42 3 0 3 C0 2.01 0 1.02 0 0 Z " fill="#697FA2" transform="translate(0,9)"/>
</svg>
